<svg xmlns="http://www.w3.org/2000/svg" xmlns:xlink="http://www.w3.org/1999/xlink" viewBox="0 0 16 16"><g id="ss2576298924_1"><path d="M 0 16 L 0 0 L 16 0 L 16 16 Z" fill="transparent"></path><path d="M 2 15 L 1 15 L 1 16 L 2 16 Z" fill="rgb(0,76,20)"></path><path d="M 2 14 L 1 14 L 1 15 L 2 15 Z" fill="rgb(0,76,20)"></path><path d="M 3 13 L 2 13 L 2 14 L 3 14 Z" fill="rgb(0,86,35)"></path><path d="M 3 12 L 2 12 L 2 13 L 3 13 Z" fill="rgb(0,86,35)"></path><path d="M 4 11 L 3 11 L 3 12 L 4 12 Z" fill="rgb(0,86,35)"></path><path d="M 5 12 L 4 12 L 4 13 L 5 13 Z" fill="rgb(0,86,35)"></path><path d="M 4 10 L 3 10 L 3 11 L 4 11 Z" fill="rgb(0,86,35)"></path><path d="M 4 9 L 3 9 L 3 10 L 4 10 Z" fill="rgb(0,117,47)"></path><path d="M 2 8 L 1 8 L 1 9 L 2 9 Z" fill="rgb(0,117,47)"></path><path d="M 1 7 L 0 7 L 0 8 L 1 8 Z" fill="rgb(0,117,47)"></path><path d="M 1 6 L 0 6 L 0 7 L 1 7 Z" fill="rgb(0,140,57)"></path><path d="M 1 5 L 0 5 L 0 6 L 1 6 Z" fill="rgb(0,140,57)"></path><path d="M 2 4 L 1 4 L 1 5 L 2 5 Z" fill="rgb(0,140,57)"></path><path d="M 3 4 L 2 4 L 2 5 L 3 5 Z" fill="rgb(0,140,57)"></path><path d="M 4 4 L 3 4 L 3 5 L 4 5 Z" fill="rgb(0,140,57)"></path><path d="M 5 5 L 4 5 L 4 6 L 5 6 Z" fill="rgb(0,140,57)"></path><path d="M 4 5 L 3 5 L 3 6 L 4 6 Z" fill="rgb(0,117,47)"></path><path d="M 3 6 L 2 6 L 2 7 L 3 7 Z" fill="rgb(0,117,47)"></path><path d="M 4 7 L 3 7 L 3 8 L 4 8 Z" fill="rgb(0,117,47)"></path><path d="M 5 7 L 4 7 L 4 8 L 5 8 Z" fill="rgb(0,117,47)"></path><path d="M 6 6 L 5 6 L 5 7 L 6 7 Z" fill="rgb(0,117,47)"></path><path d="M 7 6 L 6 6 L 6 7 L 7 7 Z" fill="rgb(0,140,57)"></path><path d="M 8 6 L 7 6 L 7 7 L 8 7 Z" fill="rgb(0,140,57)"></path><path d="M 9 5 L 8 5 L 8 6 L 9 6 Z" fill="rgb(0,140,57)"></path><path d="M 10 5 L 9 5 L 9 6 L 10 6 Z" fill="rgb(0,117,47)"></path><path d="M 11 5 L 10 5 L 10 6 L 11 6 Z" fill="rgb(0,117,47)"></path><path d="M 12 5 L 11 5 L 11 6 L 12 6 Z" fill="rgb(0,86,35)"></path><path d="M 13 5 L 12 5 L 12 6 L 13 6 Z" fill="rgb(0,86,35)"></path><path d="M 14 5 L 13 5 L 13 6 L 14 6 Z" fill="rgb(0,86,35)"></path><path d="M 14 6 L 13 6 L 13 7 L 14 7 Z" fill="rgb(0,86,35)"></path><path d="M 13 4 L 12 4 L 12 5 L 13 5 Z" fill="rgb(0,86,35)"></path><path d="M 14 4 L 13 4 L 13 5 L 14 5 Z" fill="rgb(0,86,35)"></path><path d="M 12 3 L 11 3 L 11 4 L 12 4 Z" fill="rgb(0,86,35)"></path><path d="M 13 3 L 12 3 L 12 4 L 13 4 Z" fill="rgb(0,86,35)"></path><path d="M 11 2 L 10 2 L 10 3 L 11 3 Z" fill="rgb(0,117,47)"></path><path d="M 10 2 L 9 2 L 9 3 L 10 3 Z" fill="rgb(0,117,47)"></path><path d="M 10 1 L 9 1 L 9 2 L 10 2 Z" fill="rgb(0,140,57)"></path><path d="M 11 0 L 10 0 L 10 1 L 11 1 Z" fill="rgb(0,140,57)"></path><path d="M 12 0 L 11 0 L 11 1 L 12 1 Z" fill="rgb(0,140,57)"></path><path d="M 13 0 L 12 0 L 12 1 L 13 1 Z" fill="rgb(0,140,57)"></path><path d="M 14 1 L 13 1 L 13 2 L 14 2 Z" fill="rgb(0,140,57)"></path><path d="M 15 1 L 14 1 L 14 2 L 15 2 Z" fill="rgb(0,140,57)"></path><path d="M 15 2 L 14 2 L 14 3 L 15 3 Z" fill="rgb(0,117,47)"></path><path d="M 16 3 L 15 3 L 15 4 L 16 4 Z" fill="rgb(0,117,47)"></path><path d="M 16 4 L 15 4 L 15 5 L 16 5 Z" fill="rgb(0,117,47)"></path><path d="M 11 1 L 10 1 L 10 2 L 11 2 Z" fill="rgb(200,226,48)"></path><path d="M 12 1 L 11 1 L 11 2 L 12 2 Z" fill="rgb(0,206,39)"></path><path d="M 13 1 L 12 1 L 12 2 L 13 2 Z" fill="rgb(255,255,255)"></path><path d="M 10 6 L 9 6 L 9 7 L 10 7 Z" fill="rgb(200,226,48)"></path><path d="M 9 6 L 8 6 L 8 7 L 9 7 Z" fill="rgb(200,226,48)"></path><path d="M 11 6 L 10 6 L 10 7 L 11 7 Z" fill="rgb(200,226,48)"></path><path d="M 12 6 L 11 6 L 11 7 L 12 7 Z" fill="rgb(0,206,39)"></path><path d="M 10 7 L 9 7 L 9 8 L 10 8 Z" fill="rgb(0,206,39)"></path><path d="M 9 7 L 8 7 L 8 8 L 9 8 Z" fill="rgb(0,206,39)"></path><path d="M 11 7 L 10 7 L 10 8 L 11 8 Z" fill="rgb(0,206,39)"></path><path d="M 7 7 L 6 7 L 6 8 L 7 8 Z" fill="rgb(200,226,48)"></path><path d="M 6 7 L 5 7 L 5 8 L 6 8 Z" fill="rgb(200,226,48)"></path><path d="M 8 7 L 7 7 L 7 8 L 8 8 Z" fill="rgb(0,206,39)"></path><path d="M 10 8 L 9 8 L 9 9 L 10 9 Z" fill="rgb(0,206,39)"></path><path d="M 9 8 L 8 8 L 8 9 L 9 9 Z" fill="rgb(0,206,39)"></path><path d="M 11 8 L 10 8 L 10 9 L 11 9 Z" fill="rgb(0,206,39)"></path><path d="M 11 9 L 10 9 L 10 10 L 11 10 Z" fill="rgb(0,206,39)"></path><path d="M 12 9 L 11 9 L 11 10 L 12 10 Z" fill="rgb(0,206,39)"></path><path d="M 12 10 L 11 10 L 11 11 L 12 11 Z" fill="rgb(0,206,39)"></path><path d="M 7 8 L 6 8 L 6 9 L 7 9 Z" fill="rgb(0,206,39)"></path><path d="M 6 8 L 5 8 L 5 9 L 6 9 Z" fill="rgb(0,206,39)"></path><path d="M 8 8 L 7 8 L 7 9 L 8 9 Z" fill="rgb(0,206,39)"></path><path d="M 4 8 L 3 8 L 3 9 L 4 9 Z" fill="rgb(200,226,48)"></path><path d="M 3 8 L 2 8 L 2 9 L 3 9 Z" fill="rgb(0,206,39)"></path><path d="M 3 7 L 2 7 L 2 8 L 3 8 Z" fill="rgb(200,226,48)"></path><path d="M 2 7 L 1 7 L 1 8 L 2 8 Z" fill="rgb(0,206,39)"></path><path d="M 2 6 L 1 6 L 1 7 L 2 7 Z" fill="rgb(200,226,48)"></path><path d="M 3 5 L 2 5 L 2 6 L 3 6 Z" fill="rgb(200,226,48)"></path><path d="M 2 5 L 1 5 L 1 6 L 2 6 Z" fill="rgb(200,226,48)"></path><path d="M 6 9 L 5 9 L 5 10 L 6 10 Z" fill="rgb(0,206,39)"></path><path d="M 5 9 L 4 9 L 4 10 L 5 10 Z" fill="rgb(0,206,39)"></path><path d="M 6 10 L 5 10 L 5 11 L 6 11 Z" fill="rgb(0,206,39)"></path><path d="M 5 10 L 4 10 L 4 11 L 5 11 Z" fill="rgb(0,206,39)"></path><path d="M 5 11 L 4 11 L 4 12 L 5 12 Z" fill="rgb(0,206,39)"></path><path d="M 3 14 L 2 14 L 2 15 L 3 15 Z" fill="rgb(0,206,39)"></path><path d="M 8 9 L 7 9 L 7 10 L 8 10 Z" fill="rgb(0,206,39)"></path><path d="M 7 9 L 6 9 L 6 10 L 7 10 Z" fill="rgb(0,206,39)"></path><path d="M 5 8 L 4 8 L 4 9 L 5 9 Z" fill="rgb(200,226,48)"></path><path d="M 12 7 L 11 7 L 11 8 L 12 8 Z" fill="rgb(0,206,39)"></path><path d="M 12 2 L 11 2 L 11 3 L 12 3 Z" fill="rgb(200,226,48)"></path><path d="M 13 2 L 12 2 L 12 3 L 13 3 Z" fill="rgb(200,226,48)"></path><path d="M 14 2 L 13 2 L 13 3 L 14 3 Z" fill="rgb(0,206,39)"></path><path d="M 14 3 L 13 3 L 13 4 L 14 4 Z" fill="rgb(200,226,48)"></path><path d="M 15 3 L 14 3 L 14 4 L 15 4 Z" fill="rgb(0,206,39)"></path><path d="M 15 4 L 14 4 L 14 5 L 15 5 Z" fill="rgb(0,206,39)"></path><path d="M 15 5 L 14 5 L 14 6 L 15 6 Z" fill="rgb(0,117,47)"></path><path d="M 16 5 L 15 5 L 15 6 L 16 6 Z" fill="rgb(0,117,47)"></path><path d="M 15 6 L 14 6 L 14 7 L 15 7 Z" fill="rgb(0,86,35)"></path><path d="M 14 7 L 13 7 L 13 8 L 14 8 Z" fill="rgb(0,86,35)"></path><path d="M 15 7 L 14 7 L 14 8 L 15 8 Z" fill="rgb(0,86,35)"></path><path d="M 13 7 L 12 7 L 12 8 L 13 8 Z" fill="rgb(0,117,47)"></path><path d="M 13 6 L 12 6 L 12 7 L 13 7 Z" fill="rgb(0,206,39)"></path><path d="M 14 8 L 13 8 L 13 9 L 14 9 Z" fill="rgb(0,86,35)"></path><path d="M 13 8 L 12 8 L 12 9 L 13 9 Z" fill="rgb(0,86,35)"></path><path d="M 14 9 L 13 9 L 13 10 L 14 10 Z" fill="rgb(0,86,35)"></path><path d="M 13 9 L 12 9 L 12 10 L 13 10 Z" fill="rgb(0,117,47)"></path><path d="M 15 10 L 14 10 L 14 11 L 15 11 Z" fill="rgb(0,86,35)"></path><path d="M 15 11 L 14 11 L 14 12 L 15 12 Z" fill="rgb(0,86,35)"></path><path d="M 15 12 L 14 12 L 14 13 L 15 13 Z" fill="rgb(0,76,20)"></path><path d="M 14 12 L 13 12 L 13 13 L 14 13 Z" fill="rgb(0,76,20)"></path><path d="M 13 11 L 12 11 L 12 12 L 13 12 Z" fill="rgb(0,117,47)"></path><path d="M 12 11 L 11 11 L 11 12 L 12 12 Z" fill="rgb(0,117,47)"></path><path d="M 13 10 L 12 10 L 12 11 L 13 11 Z" fill="rgb(0,117,47)"></path><path d="M 12 8 L 11 8 L 11 9 L 12 9 Z" fill="rgb(0,117,47)"></path><path d="M 11 10 L 10 10 L 10 11 L 11 11 Z" fill="rgb(0,117,47)"></path><path d="M 4 14 L 3 14 L 3 15 L 4 15 Z" fill="rgb(0,86,35)"></path><path d="M 4 12 L 3 12 L 3 13 L 4 13 Z" fill="rgb(0,86,35)"></path><path d="M 6 11 L 5 11 L 5 12 L 6 12 Z" fill="rgb(0,86,35)"></path><path d="M 7 10 L 6 10 L 6 11 L 7 11 Z" fill="rgb(0,117,47)"></path><path d="M 7 11 L 6 11 L 6 12 L 7 12 Z" fill="rgb(0,86,35)"></path><path d="M 8 10 L 7 10 L 7 11 L 8 11 Z" fill="rgb(0,86,35)"></path><path d="M 9 10 L 8 10 L 8 11 L 9 11 Z" fill="rgb(0,86,35)"></path><path d="M 9 9 L 8 9 L 8 10 L 9 10 Z" fill="rgb(0,117,47)"></path><path d="M 10 11 L 9 11 L 9 12 L 10 12 Z" fill="rgb(0,76,20)"></path><path d="M 11 11 L 10 11 L 10 12 L 11 12 Z" fill="rgb(0,117,47)"></path><path d="M 10 10 L 9 10 L 9 11 L 10 11 Z" fill="rgb(0,76,20)"></path><path d="M 10 9 L 9 9 L 9 10 L 10 10 Z" fill="rgb(0,117,47)"></path><path d="M 9 12 L 8 12 L 8 13 L 9 13 Z" fill="rgb(0,76,20)"></path><path d="M 9 13 L 8 13 L 8 14 L 9 14 Z" fill="rgb(0,76,20)"></path><path d="M 10 14 L 9 14 L 9 15 L 10 15 Z" fill="rgb(0,76,20)"></path><path d="M 11 15 L 10 15 L 10 16 L 11 16 Z" fill="rgb(0,76,20)"></path><path d="M 12 15 L 11 15 L 11 16 L 12 16 Z" fill="rgb(0,76,20)"></path><path d="M 13 15 L 12 15 L 12 16 L 13 16 Z" fill="rgb(0,76,20)"></path><path d="M 12 14 L 11 14 L 11 15 L 12 15 Z" fill="rgb(0,76,20)"></path><path d="M 11 14 L 10 14 L 10 15 L 11 15 Z" fill="rgb(0,76,20)"></path><path d="M 11 12 L 10 12 L 10 13 L 11 13 Z" fill="rgb(0,76,20)"></path><path d="M 10 12 L 9 12 L 9 13 L 10 13 Z" fill="rgb(0,76,20)"></path><path d="M 10 13 L 9 13 L 9 14 L 10 14 Z" fill="rgb(0,76,20)"></path><path d="M 6 4 L 5 4 L 5 5 L 6 5 Z" fill="rgb(0,140,57)"></path><path d="M 8 5 L 7 5 L 7 6 L 8 6 Z" fill="rgb(0,140,57)"></path><path d="M 7 3 L 6 3 L 6 4 L 7 4 Z" fill="rgb(0,140,57)"></path><path d="M 6 2 L 5 2 L 5 3 L 6 3 Z" fill="rgb(0,140,57)"></path><path d="M 3 9 L 2 9 L 2 10 L 3 10 Z" fill="rgb(0,117,47)"></path><path d="M 3 15 L 2 15 L 2 16 L 3 16 Z" fill="rgb(0,76,20)"></path><path d="M 4 15 L 3 15 L 3 16 L 4 16 Z" fill="rgb(0,76,20)"></path></g></svg>